<svg width="127" height="127" viewBox="0 0 127 127" fill="none" xmlns="http://www.w3.org/2000/svg">
<circle cx="63.5" cy="63.5" r="63.5" fill="#FF002E"/>
<path d="M49.4166 57.75V82.75H41.0833V57.75H49.4166ZM57.75 82.75C56.6449 82.75 55.5851 82.3111 54.8037 81.5297C54.0223 80.7483 53.5833 79.6884 53.5833 78.5834V57.75C53.5833 56.6042 54.0416 55.5625 54.8125 54.8125L68.5208 41.0834L70.7291 43.2917C71.2916 43.8542 71.6458 44.625 71.6458 45.4792L71.5833 46.1459L69.6041 55.6667H82.75C83.855 55.6667 84.9149 56.1057 85.6963 56.8871C86.4777 57.6685 86.9166 58.7283 86.9166 59.8334V64C86.9166 64.5417 86.8125 65.0417 86.625 65.5209L80.3333 80.2084C79.7083 81.7084 78.2291 82.75 76.5 82.75H57.75ZM57.75 78.5834H76.5625L82.75 64V59.8334H64.4375L66.7916 48.75L57.75 57.8125V78.5834Z" fill="white"/>
</svg>
