<svg width="127" height="127" viewBox="0 0 127 127" fill="none" xmlns="http://www.w3.org/2000/svg">
<circle cx="63.5" cy="63.5" r="63.5" fill="#FF002E"/>
<g clip-path="url(#clip0_8_16)">
<path fill-rule="evenodd" clip-rule="evenodd" d="M69.4042 45.0354C67.8964 43.7505 65.9801 43.0447 63.999 43.0447C62.0179 43.0447 60.1016 43.7505 58.5938 45.0354L57.8105 45.7021C57.1434 46.2712 56.3137 46.6153 55.4396 46.6854L54.4126 46.7688C52.4375 46.9259 50.5831 47.7817 49.1819 49.1825C47.7807 50.5833 46.9244 52.4375 46.7667 54.4125L46.6855 55.4396C46.6159 56.3134 46.2726 57.1431 45.7042 57.8104L45.0355 58.5938C43.7499 60.1017 43.0438 62.0185 43.0438 64C43.0438 65.9816 43.7499 67.8983 45.0355 69.4063L45.7021 70.1896C46.2712 70.8567 46.6153 71.6864 46.6855 72.5604L46.7688 73.5875C46.926 75.5626 47.7817 77.417 49.1825 78.8182C50.5833 80.2194 52.4375 81.0756 54.4126 81.2334L55.4396 81.3146C56.3135 81.3842 57.1431 81.7275 57.8105 82.2959L58.5938 82.9625C60.1018 84.2481 62.0185 84.9542 64.0001 84.9542C65.9816 84.9542 67.8983 84.2481 69.4063 82.9625L70.1896 82.2959C70.857 81.7275 71.6867 81.3842 72.5605 81.3146L73.5876 81.2313C75.5626 81.0741 77.4171 80.2184 78.8183 78.8176C80.2194 77.4168 81.0757 75.5625 81.2334 73.5875L81.3126 72.5604C81.3827 71.6864 81.7268 70.8567 82.2959 70.1896L82.9626 69.4042C84.2475 67.8964 84.9533 65.9801 84.9533 63.999C84.9533 62.0179 84.2475 60.1016 82.9626 58.5938L82.2959 57.8104C81.7268 57.1433 81.3827 56.3137 81.3126 55.4396L81.2313 54.4125C81.0741 52.4375 80.2184 50.583 78.8176 49.1818C77.4168 47.7806 75.5626 46.9244 73.5876 46.7667L72.5605 46.6854C71.6867 46.6159 70.857 46.2725 70.1896 45.7042L69.4042 45.0354ZM61.298 48.2084C62.0518 47.5661 63.0097 47.2134 64.0001 47.2134C64.9904 47.2134 65.9483 47.5661 66.7021 48.2084L67.4876 48.8771C68.8221 50.0145 70.4813 50.702 72.2292 50.8417L73.2563 50.925C74.2433 51.0041 75.1699 51.432 75.87 52.1321C76.5702 52.8323 76.9981 53.7589 77.0771 54.7459L77.1605 55.7729C77.3002 57.5208 77.9877 59.1801 79.1251 60.5146L79.7917 61.3C80.4339 62.0539 80.7867 63.0118 80.7867 64.0021C80.7867 64.9924 80.4339 65.9504 79.7917 66.7042L79.1251 67.4896C77.9877 68.8241 77.3002 70.4834 77.1605 72.2313L77.0771 73.2584C76.9981 74.2454 76.5702 75.1719 75.87 75.8721C75.1699 76.5722 74.2433 77.0002 73.2563 77.0792L72.2292 77.1625C70.4813 77.3022 68.8221 77.9897 67.4876 79.1271L66.7021 79.7938C65.9483 80.436 64.9904 80.7887 64.0001 80.7887C63.0097 80.7887 62.0518 80.436 61.298 79.7938L60.5126 79.1271C59.1781 77.9897 57.5188 77.3022 55.7709 77.1625L54.7438 77.0792C53.7564 77.0006 52.8293 76.5729 52.1288 75.8727C51.4282 75.1725 51 74.2457 50.9209 73.2584L50.8376 72.2313C50.6985 70.4836 50.0117 68.8244 48.8751 67.4896L48.2084 66.7042C47.5662 65.9504 47.2135 64.9924 47.2135 64.0021C47.2135 63.0118 47.5662 62.0539 48.2084 61.3L48.8751 60.5146C50.0125 59.1801 50.6999 57.5208 50.8396 55.7729L50.923 54.7459C51.0015 53.7585 51.4292 52.8314 52.1294 52.1308C52.8296 51.4303 53.7565 51.002 54.7438 50.9229L55.7709 50.8417C57.5188 50.702 59.1781 50.0145 60.5126 48.8771L61.298 48.2084ZM71.723 59.225C71.922 59.0328 72.0807 58.803 72.1899 58.5488C72.299 58.2946 72.3565 58.0212 72.3589 57.7446C72.3613 57.468 72.3086 57.1937 72.2039 56.9376C72.0991 56.6816 71.9444 56.449 71.7488 56.2534C71.5532 56.0578 71.3206 55.9031 71.0645 55.7983C70.8085 55.6936 70.5342 55.6409 70.2576 55.6433C69.9809 55.6457 69.7076 55.7031 69.4534 55.8123C69.1992 55.9215 68.9693 56.0802 68.7771 56.2792L56.2771 68.7792C56.0782 68.9714 55.9194 69.2013 55.8103 69.4554C55.7011 69.7096 55.6436 69.983 55.6412 70.2596C55.6388 70.5362 55.6915 70.8106 55.7963 71.0666C55.901 71.3226 56.0557 71.5552 56.2513 71.7508C56.4469 71.9465 56.6795 72.1012 56.9356 72.2059C57.1916 72.3107 57.4659 72.3634 57.7426 72.361C58.0192 72.3586 58.2926 72.3011 58.5467 72.1919C58.8009 72.0827 59.0308 71.924 59.223 71.725L71.723 59.225ZM61.9167 58.7917C61.9167 59.6205 61.5875 60.4153 61.0014 61.0014C60.4154 61.5875 59.6205 61.9167 58.7917 61.9167C57.9629 61.9167 57.1681 61.5875 56.582 61.0014C55.996 60.4153 55.6667 59.6205 55.6667 58.7917C55.6667 57.9629 55.996 57.168 56.582 56.582C57.1681 55.9959 57.9629 55.6667 58.7917 55.6667C59.6205 55.6667 60.4154 55.9959 61.0014 56.582C61.5875 57.168 61.9167 57.9629 61.9167 58.7917ZM69.2084 72.3334C70.0372 72.3334 70.8321 72.0041 71.4181 71.4181C72.0042 70.832 72.3334 70.0372 72.3334 69.2084C72.3334 68.3796 72.0042 67.5847 71.4181 66.9986C70.8321 66.4126 70.0372 66.0834 69.2084 66.0834C68.3796 66.0834 67.5847 66.4126 66.9987 66.9986C66.4126 67.5847 66.0834 68.3796 66.0834 69.2084C66.0834 70.0372 66.4126 70.832 66.9987 71.4181C67.5847 72.0041 68.3796 72.3334 69.2084 72.3334Z" fill="white"/>
</g>
<defs>
<clipPath id="clip0_8_16">
<rect width="50" height="50" fill="white" transform="translate(39 39)"/>
</clipPath>
</defs>
</svg>
