<svg width="118" height="39" viewBox="0 0 118 39" fill="none" xmlns="http://www.w3.org/2000/svg">
<g clip-path="url(#clip0_103_8)">
<path fill-rule="evenodd" clip-rule="evenodd" d="M18.063 0.028727C18.4023 0.00932214 18.7453 0 19.0883 0C29.6337 0 38.1957 8.7379 38.1957 19.5C38.1957 30.2621 29.6337 39 19.0883 39C8.79266 39 0.387253 30.6711 -0.000488281 20.261H7.40387C7.78602 26.5029 12.8751 31.4511 19.0883 31.4511C25.5513 31.4511 30.7988 26.0958 30.7988 19.5C30.7988 12.9042 25.5513 7.54889 19.0883 7.54889C18.7416 7.54889 18.4004 7.56411 18.063 7.59645V0.028727Z" fill="white"/>
<path fill-rule="evenodd" clip-rule="evenodd" d="M1.38858 12.1585L8.10319 15.3565C7.71545 16.4218 7.47498 17.5576 7.40414 18.739H-0.000213623C0.0874009 16.418 0.572091 14.2017 1.38858 12.1585Z" fill="#0074BF"/>
<path fill-rule="evenodd" clip-rule="evenodd" d="M6.748 4.62294L11.1492 10.7355C10.165 11.6563 9.33727 12.7502 8.71465 13.9696L2.00562 10.7735C3.16697 8.40689 4.78692 6.3142 6.748 4.62294Z" fill="#EE207A"/>
<path fill-rule="evenodd" clip-rule="evenodd" d="M16.572 0.17408V7.82855C15.0099 8.1786 13.5614 8.84635 12.3068 9.77094L7.92426 3.68503C10.4203 1.83967 13.3713 0.599275 16.572 0.17408Z" fill="#FCEE21"/>
<path d="M19.0886 22.7341C20.8388 22.7341 22.2576 21.2862 22.2576 19.5C22.2576 17.7138 20.8388 16.2659 19.0886 16.2659C17.3384 16.2659 15.9196 17.7138 15.9196 19.5C15.9196 21.2862 17.3384 22.7341 19.0886 22.7341Z" fill="white"/>
<path d="M47.679 20.9639V3.2858H53.2918C55.4208 3.2858 56.7998 3.38456 57.453 3.55739C58.445 3.82898 59.2675 4.39685 59.9449 5.2857C60.5981 6.17454 60.9369 7.31029 60.9369 8.71763C60.9369 9.80399 60.7433 10.7175 60.3562 11.4582C59.9691 12.1989 59.4853 12.7915 58.8804 13.2112C58.2998 13.631 57.695 13.9026 57.066 14.0507C56.2434 14.2235 55.0337 14.2976 53.4612 14.2976H51.1628V20.9639H47.679ZM51.1628 6.2733V11.2854H53.0741C54.4531 11.2854 55.3724 11.2113 55.8563 11.0138C56.316 10.841 56.6789 10.5447 56.945 10.1497C57.2111 9.75461 57.3321 9.31019 57.3321 8.76701C57.3321 8.12506 57.1627 7.60657 56.7756 7.18684C56.4127 6.7671 55.9531 6.49551 55.3724 6.39675C54.9612 6.32268 54.1144 6.2733 52.8564 6.2733H51.1628Z" fill="white"/>
<path d="M63.8158 20.9639V3.2858H71.1705C73.0334 3.2858 74.3882 3.45863 75.2108 3.75491C76.0575 4.07588 76.7349 4.64375 77.2188 5.45853C77.7268 6.2733 77.993 7.21153 77.993 8.24851C77.993 9.58178 77.6059 10.6681 76.8317 11.5323C76.0817 12.3965 74.9446 12.9396 73.4205 13.1619C74.1705 13.6063 74.7995 14.1001 75.2833 14.6433C75.7672 15.1864 76.4446 16.1494 77.2672 17.5073L79.3962 20.9639H75.2108L72.6705 17.1123C71.7753 15.7543 71.1705 14.8655 70.8318 14.5198C70.5173 14.1741 70.1544 13.9272 69.7915 13.7791C69.4286 13.6557 68.8238 13.5816 68.0254 13.5816H67.3238V20.9639H63.8158ZM67.3238 10.7669H69.9125C71.5818 10.7669 72.6221 10.6928 73.0576 10.5447C73.4689 10.3966 73.7834 10.1497 74.0253 9.80399C74.2672 9.45833 74.3882 9.01391 74.3882 8.47073C74.3882 7.87816 74.2188 7.40905 73.9043 7.0387C73.614 6.66834 73.1544 6.44613 72.5979 6.34737C72.3076 6.29799 71.4608 6.2733 70.0576 6.2733H67.3238V10.7669Z" fill="white"/>
<path d="M84.6751 3.2858H81.1671V20.9639H84.6751V3.2858Z" fill="white"/>
<path d="M88.0331 20.9639V3.2858H91.4443L98.5329 15.0877V3.2858H101.775V20.9639H98.2668L91.275 9.43364V20.9639H88.0331Z" fill="white"/>
<path d="M109.376 20.9639V6.2733H104.223V3.2858H117.989V6.2733H112.86V20.9639H109.376Z" fill="white"/>
<path d="M52.9001 32.6607L54.4206 33.1484C54.1816 34.0129 53.8015 34.6557 53.2585 35.0769C52.7155 35.4981 52.0204 35.7087 51.195 35.7087C50.1524 35.7087 49.3053 35.354 48.6428 34.6336C47.9803 33.9131 47.6437 32.9267 47.6437 31.6743C47.6437 30.3553 47.9803 29.3356 48.6537 28.6041C49.3162 27.8726 50.1959 27.5069 51.2819 27.5069C52.2376 27.5069 53.0087 27.795 53.606 28.3714C53.9536 28.7039 54.2251 29.1916 54.3988 29.8233L52.8458 30.2112C52.7481 29.8012 52.5634 29.4687 52.2702 29.2359C51.977 28.9921 51.6186 28.8812 51.2059 28.8812C50.6303 28.8812 50.1633 29.0918 49.8049 29.513C49.4465 29.9342 49.2619 30.6103 49.2619 31.5634C49.2619 32.561 49.4465 33.2814 49.794 33.7026C50.1524 34.1237 50.6086 34.3454 51.1733 34.3454C51.586 34.3454 51.9552 34.2013 52.2485 33.9353C52.5526 33.6693 52.7698 33.237 52.9001 32.6607Z" fill="white"/>
<path d="M55.4407 31.6521C55.4407 30.8541 55.5602 30.1669 55.7991 29.6238C55.9729 29.2137 56.2227 28.8591 56.5267 28.5376C56.8308 28.2162 57.1675 27.9724 57.5259 27.8172C58.0146 27.6066 58.5685 27.5069 59.2093 27.5069C60.3496 27.5069 61.2727 27.8726 61.9569 28.5931C62.6411 29.3246 62.9887 30.3332 62.9887 31.6189C62.9887 32.9045 62.6411 33.9021 61.9678 34.6225C61.2836 35.354 60.3713 35.7087 59.231 35.7087C58.0689 35.7087 57.1566 35.354 56.4724 34.6336C55.7882 33.9131 55.4407 32.9156 55.4407 31.6521ZM57.0589 31.6078C57.0589 32.5055 57.2652 33.1816 57.6779 33.6471C58.0798 34.1126 58.5902 34.3454 59.2201 34.3454C59.85 34.3454 60.3605 34.1126 60.7623 33.6471C61.1641 33.1927 61.3596 32.5055 61.3596 31.5856C61.3596 30.6768 61.1641 29.9896 60.7732 29.5462C60.3822 29.1029 59.8717 28.8812 59.2201 28.8812C58.5794 28.8812 58.0581 29.1029 57.6562 29.5573C57.2652 30.0117 57.0589 30.6878 57.0589 31.6078Z" fill="white"/>
<path d="M64.1928 35.5756V27.6398H66.5386L67.9505 33.0486L69.3406 27.6398H71.6973V35.5756H70.242V29.3356L68.6998 35.5756H67.1902L65.6481 29.3356V35.5756H64.1928Z" fill="white"/>
<path d="M73.2648 35.5756V27.6398H75.7844C76.7401 27.6398 77.3591 27.6842 77.6524 27.7618C78.0976 27.8837 78.4669 28.1386 78.771 28.5376C79.0642 28.9366 79.2163 29.4465 79.2163 30.0782C79.2163 30.5659 79.1294 30.976 78.9556 31.3085C78.7818 31.641 78.5646 31.907 78.2931 32.0954C78.0325 32.2838 77.761 32.4058 77.4786 32.4723C77.1093 32.5498 76.5663 32.5831 75.8604 32.5831H74.8287V35.5756H73.2648ZM74.8287 28.981V31.2309H75.6866C76.3057 31.2309 76.7184 31.1977 76.9356 31.109C77.1419 31.0314 77.3048 30.8984 77.4243 30.7211C77.5438 30.5437 77.5981 30.3442 77.5981 30.1004C77.5981 29.8122 77.522 29.5795 77.3483 29.391C77.1854 29.2026 76.979 29.0807 76.7184 29.0364C76.5337 29.0031 76.1536 28.981 75.5889 28.981H74.8287Z" fill="white"/>
<path d="M86.7031 35.5756H84.998L84.3247 33.769H81.2077L80.567 35.5756H78.9053L81.9354 27.6398H83.597L86.7031 35.5756ZM83.8142 32.439L82.7499 29.4908L81.6965 32.439H83.8142Z" fill="white"/>
<path d="M87.5546 35.5756V27.6398H89.0859L92.268 32.9378V27.6398H93.7233V35.5756H92.1485L89.0099 30.3996V35.5756H87.5546Z" fill="white"/>
<path d="M97.426 35.5756V32.2395L94.5806 27.6398H96.416L98.2405 30.7765L100.032 27.6398H101.846L98.9899 32.2506V35.5756H97.426Z" fill="white"/>
</g>
<defs>
<clipPath id="clip0_103_8">
<rect width="118" height="39" fill="white"/>
</clipPath>
</defs>
</svg>
