<svg width="96" height="24" viewBox="0 0 96 24" fill="none" xmlns="http://www.w3.org/2000/svg">
<path d="M84 8.12495V15.925L87.15 17.85L86.325 14.25L89.1 11.85L85.45 11.525L84 8.12495ZM84 18.275L79.85 20.775C79.6666 20.8916 79.475 20.9416 79.275 20.9249C79.075 20.9083 78.9 20.8416 78.75 20.725C78.6 20.6083 78.4833 20.4623 78.4 20.287C78.3166 20.1116 78.3 19.916 78.35 19.7L79.45 14.975L75.775 11.8C75.6083 11.65 75.5043 11.479 75.463 11.287C75.4216 11.095 75.434 10.9076 75.5 10.725C75.5666 10.5416 75.6666 10.3916 75.8 10.275C75.9333 10.1583 76.1166 10.0833 76.35 10.05L81.2 9.62495L83.075 5.17495C83.1583 4.97495 83.2876 4.82495 83.463 4.72495C83.6383 4.62495 83.8173 4.57495 84 4.57495C84.1833 4.57495 84.3623 4.62495 84.537 4.72495C84.7116 4.82495 84.841 4.97495 84.925 5.17495L86.8 9.62495L91.65 10.05C91.8833 10.0833 92.0666 10.1583 92.2 10.275C92.3333 10.3916 92.4333 10.5416 92.5 10.725C92.5666 10.9083 92.5793 11.096 92.538 11.288C92.4966 11.48 92.3923 11.6506 92.225 11.8L88.55 14.975L89.65 19.7C89.7 19.9166 89.6833 20.1126 89.6 20.288C89.5166 20.4633 89.4 20.609 89.25 20.725C89.1 20.8416 88.925 20.9083 88.725 20.9249C88.525 20.9416 88.3333 20.8916 88.15 20.775L84 18.275Z" fill="white"/>
<path d="M11.9999 17.3001L8.29994 20.1251C8.11661 20.2751 7.91661 20.3461 7.69994 20.3381C7.48327 20.3301 7.29161 20.2674 7.12494 20.1501C6.95827 20.0334 6.82927 19.8751 6.73794 19.6751C6.64661 19.4751 6.64227 19.2584 6.72494 19.0251L8.14994 14.4001L4.52494 11.8251C4.32494 11.6918 4.19994 11.5168 4.14994 11.3001C4.09994 11.0834 4.10827 10.8834 4.17494 10.7001C4.24161 10.5168 4.35827 10.3541 4.52494 10.2121C4.69161 10.0701 4.89161 9.99944 5.12494 10.0001H9.59994L11.0499 5.2001C11.1333 4.96677 11.2626 4.78744 11.4379 4.6621C11.6133 4.53677 11.8006 4.47444 11.9999 4.4751C12.1999 4.4751 12.3876 4.53777 12.5629 4.6631C12.7383 4.78844 12.8673 4.96744 12.9499 5.2001L14.3999 10.0001H18.8749C19.1083 10.0001 19.3083 10.0711 19.4749 10.2131C19.6416 10.3551 19.7583 10.5174 19.8249 10.7001C19.8916 10.8834 19.8999 11.0834 19.8499 11.3001C19.7999 11.5168 19.6749 11.6918 19.4749 11.8251L15.8499 14.4001L17.2749 19.0251C17.3583 19.2584 17.3543 19.4751 17.2629 19.6751C17.1716 19.8751 17.0423 20.0334 16.8749 20.1501C16.7083 20.2668 16.5166 20.3294 16.2999 20.3381C16.0833 20.3468 15.8833 20.2758 15.6999 20.1251L11.9999 17.3001Z" fill="white"/>
<path d="M35.9999 17.3001L32.2999 20.1251C32.1166 20.2751 31.9166 20.3461 31.6999 20.3381C31.4833 20.3301 31.2916 20.2674 31.1249 20.1501C30.9583 20.0334 30.8293 19.8751 30.7379 19.6751C30.6466 19.4751 30.6423 19.2584 30.7249 19.0251L32.1499 14.4001L28.5249 11.8251C28.3249 11.6918 28.1999 11.5168 28.1499 11.3001C28.0999 11.0834 28.1083 10.8834 28.1749 10.7001C28.2416 10.5168 28.3583 10.3541 28.5249 10.2121C28.6916 10.0701 28.8916 9.99944 29.1249 10.0001H33.5999L35.0499 5.2001C35.1333 4.96677 35.2626 4.78744 35.4379 4.6621C35.6133 4.53677 35.8006 4.47444 35.9999 4.4751C36.1999 4.4751 36.3876 4.53777 36.5629 4.6631C36.7383 4.78844 36.8673 4.96744 36.9499 5.2001L38.3999 10.0001H42.8749C43.1083 10.0001 43.3083 10.0711 43.4749 10.2131C43.6416 10.3551 43.7583 10.5174 43.8249 10.7001C43.8916 10.8834 43.8999 11.0834 43.8499 11.3001C43.7999 11.5168 43.6749 11.6918 43.4749 11.8251L39.8499 14.4001L41.2749 19.0251C41.3583 19.2584 41.3543 19.4751 41.2629 19.6751C41.1716 19.8751 41.0423 20.0334 40.8749 20.1501C40.7083 20.2668 40.5166 20.3294 40.2999 20.3381C40.0833 20.3468 39.8833 20.2758 39.6999 20.1251L35.9999 17.3001Z" fill="white"/>
<path d="M59.9999 17.3001L56.2999 20.1251C56.1166 20.2751 55.9166 20.3461 55.6999 20.3381C55.4833 20.3301 55.2916 20.2674 55.1249 20.1501C54.9583 20.0334 54.8293 19.8751 54.7379 19.6751C54.6466 19.4751 54.6423 19.2584 54.7249 19.0251L56.1499 14.4001L52.5249 11.8251C52.3249 11.6918 52.1999 11.5168 52.1499 11.3001C52.0999 11.0834 52.1083 10.8834 52.1749 10.7001C52.2416 10.5168 52.3583 10.3541 52.5249 10.2121C52.6916 10.0701 52.8916 9.99944 53.1249 10.0001H57.5999L59.0499 5.2001C59.1333 4.96677 59.2626 4.78744 59.4379 4.6621C59.6133 4.53677 59.8006 4.47444 59.9999 4.4751C60.1999 4.4751 60.3876 4.53777 60.5629 4.6631C60.7383 4.78844 60.8673 4.96744 60.9499 5.2001L62.3999 10.0001H66.8749C67.1083 10.0001 67.3083 10.0711 67.4749 10.2131C67.6416 10.3551 67.7583 10.5174 67.8249 10.7001C67.8916 10.8834 67.8999 11.0834 67.8499 11.3001C67.7999 11.5168 67.6749 11.6918 67.4749 11.8251L63.8499 14.4001L65.2749 19.0251C65.3583 19.2584 65.3543 19.4751 65.2629 19.6751C65.1716 19.8751 65.0423 20.0334 64.8749 20.1501C64.7083 20.2668 64.5166 20.3294 64.2999 20.3381C64.0833 20.3468 63.8833 20.2758 63.6999 20.1251L59.9999 17.3001Z" fill="white"/>
</svg>
