<svg width="46" height="46" viewBox="0 0 46 46" fill="none" xmlns="http://www.w3.org/2000/svg">
<path d="M22.9167 0C10.2667 0 0 10.2667 0 22.9167C0 35.5667 10.2667 45.8333 22.9167 45.8333H34.375V41.25H22.9167C12.9708 41.25 4.58333 32.8625 4.58333 22.9167C4.58333 12.9708 12.9708 4.58333 22.9167 4.58333C32.8625 4.58333 41.25 12.9708 41.25 22.9167V26.1937C41.25 28.0042 39.6229 29.7917 37.8125 29.7917C36.0021 29.7917 34.375 28.0042 34.375 26.1937V22.9167C34.375 16.5917 29.2417 11.4583 22.9167 11.4583C16.5917 11.4583 11.4583 16.5917 11.4583 22.9167C11.4583 29.2417 16.5917 34.375 22.9167 34.375C26.0792 34.375 28.9667 33.0917 31.0292 31.0062C32.5187 33.0458 35.0854 34.375 37.8125 34.375C42.3271 34.375 45.8333 30.7083 45.8333 26.1937V22.9167C45.8333 10.2667 35.5667 0 22.9167 0ZM22.9167 29.7917C19.1125 29.7917 16.0417 26.7208 16.0417 22.9167C16.0417 19.1125 19.1125 16.0417 22.9167 16.0417C26.7208 16.0417 29.7917 19.1125 29.7917 22.9167C29.7917 26.7208 26.7208 29.7917 22.9167 29.7917Z" fill="#1873CD"/>
</svg>
