<svg width="800" height="800" viewBox="0 0 800 800" fill="none" xmlns="http://www.w3.org/2000/svg">
<g clip-path="url(#clip0_24_8)">
<path d="M800 389.709C800 604.924 624.176 779.392 407.239 779.392C338.396 779.392 273.727 761.783 217.432 730.949L0 800L70.8775 590.863C35.1387 532.168 14.5564 463.247 14.5564 389.683C14.5825 174.468 190.354 0 407.291 0C624.202 0.0521733 800 174.494 800 389.709ZM407.213 62.1385C225.154 62.1385 77.06 209.111 77.06 389.787C77.06 461.473 100.434 527.838 139.955 581.837L98.7381 703.479L225.571 663.175C277.745 697.401 340.17 717.331 407.213 717.331C589.272 717.331 737.418 570.385 737.418 389.709C737.47 209.111 589.298 62.1385 407.213 62.1385ZM605.576 479.473C603.124 475.534 596.707 473.134 587.107 468.334C577.533 463.534 530.133 440.447 521.342 437.317C512.473 434.108 506.055 432.491 499.638 442.065C493.299 451.639 474.83 473.134 469.169 479.551C463.56 485.943 457.952 486.751 448.326 482.03C438.7 477.177 407.656 467.16 370.874 434.63C342.257 409.274 322.927 378.048 317.344 368.474C311.684 358.927 316.77 353.761 321.544 349.014C325.849 344.709 331.17 337.849 335.996 332.24C340.822 326.683 342.414 322.744 345.622 316.353C348.779 309.962 347.188 304.405 344.814 299.579C342.414 294.779 323.188 247.823 315.127 228.702C307.118 209.606 299.11 212.763 293.475 212.763C287.866 212.763 281.449 211.98 275.032 211.98C268.614 211.98 258.18 214.302 249.389 223.876C240.597 233.45 215.711 256.536 215.711 303.545C215.711 350.605 250.171 395.97 254.997 402.335C259.849 408.674 321.623 508.299 419.474 546.542C517.377 584.759 517.377 572.002 535.012 570.385C552.698 568.768 591.985 547.298 599.967 525.02C608.002 502.638 608.002 483.464 605.576 479.473Z" fill="white"/>
</g>
<defs>
<clipPath id="clip0_24_8">
<rect width="800" height="800" fill="white"/>
</clipPath>
</defs>
</svg>
